<?xml version="1.0" standalone="no"?>
<!DOCTYPE svg PUBLIC "-//W3C//DTD SVG 20010904//EN" "http://www.w3.org/TR/2001/REC-SVG-20010904/DTD/svg10.dtd">
<svg version="1.0" xmlns="http://www.w3.org/2000/svg" width="1980.000000pt" height="1080.000000pt"
  viewBox="0 0 1940 1058.000000" preserveAspectRatio="xMidYMid meet">
  <metadata>
    Created by potrace 1.16, written by Peter Selinger 2001-2019
  </metadata>
  <g transform="translate(0.000000,1080.000000) scale(0.100000,-0.100000)" fill="#000000" stroke="none">
    <path d="M0 9206 l0 -1595 57 24 c32 13 121 53 197 89 77 37 141 64 144 61 3
-3 1 -5 -5 -5 -5 0 -25 -14 -43 -30 -23 -21 -40 -28 -54 -24 -18 4 -18 3 -6
-6 12 -10 11 -11 -7 -7 -14 3 -20 1 -17 -8 3 -7 -8 -18 -26 -25 -17 -7 -36
-20 -43 -29 -15 -21 -98 -81 -111 -81 -6 -1 -28 -16 -49 -34 l-38 -34 3 -81 3
-80 90 50 c88 50 1252 634 1910 959 182 90 333 165 338 167 4 2 7 2 7 -1 0 -2
-30 -21 -67 -42 -341 -189 -733 -537 -1037 -917 -301 -379 -629 -923 -1184
-1968 l-62 -116 2 -1931 3 -1932 330 198 c182 109 386 231 455 272 238 140
640 384 1070 650 69 42 190 118 270 167 212 131 254 157 365 229 114 74 135
86 135 81 0 -3 -30 -24 -67 -48 -578 -373 -1342 -1033 -2225 -1921 l-338 -339
0 -450 0 -449 452 2 451 3 89 110 c49 61 124 148 166 196 42 47 102 114 132
149 137 160 225 254 457 485 136 136 289 282 338 324 50 42 129 110 176 151
47 41 188 158 315 260 203 163 588 481 1024 844 171 143 372 315 601 516 91
80 266 233 389 340 124 107 256 224 295 259 38 36 2 -5 -81 -90 -390 -399
-694 -779 -997 -1249 -253 -392 -522 -873 -1087 -1940 -100 -190 -184 -348
-187 -352 -2 -5 3747 -8 8331 -8 l8336 0 0 5400 0 5400 -9600 0 -9600 0 0
-1594z m14390 995 c0 -5 -12 -17 -27 -27 -98 -64 -188 -179 -307 -394 -48 -85
-94 -160 -102 -167 -25 -18 -281 -15 -310 4 -12 8 -28 13 -36 12 -27 -5 -82
14 -100 35 -22 27 -22 28 2 57 29 35 34 41 52 71 10 14 28 28 40 30 13 2 22 9
21 16 -2 6 6 12 16 12 11 0 23 5 26 10 4 6 11 8 16 5 5 -4 9 -2 9 3 0 14 84
62 108 62 11 0 25 6 31 13 12 15 125 72 203 103 27 11 48 22 48 27 0 4 7 7 17
7 9 0 41 12 70 26 30 14 63 26 73 27 15 1 17 4 7 16 -10 12 -9 13 7 4 15 -8
23 -7 34 3 7 8 21 14 31 14 10 0 26 9 37 19 21 22 34 26 34 12z m-2608 -456
c89 34 -192 -209 -411 -356 -155 -104 -258 -157 -556 -289 -272 -119 -372
-174 -520 -285 -324 -243 -585 -617 -936 -1345 -373 -775 -521 -1042 -723
-1309 -100 -132 -300 -332 -424 -424 -96 -71 -141 -97 -114 -64 6 7 25 64 41
127 17 63 47 174 66 245 20 72 49 182 66 245 17 63 44 162 61 220 16 58 38
134 48 170 21 74 94 287 138 405 135 363 331 680 575 931 208 216 416 366 952
691 61 36 125 74 144 84 18 10 42 26 52 35 11 9 19 14 19 11 0 -4 16 5 36 18
20 14 43 25 50 25 8 0 14 4 14 9 0 5 9 13 20 16 11 3 20 14 20 23 0 15 2 15
10 2 9 -14 15 -7 11 14 -1 5 5 6 13 3 8 -3 16 -3 18 1 2 4 26 18 53 32 28 14
49 32 47 39 -1 7 2 10 7 7 5 -3 32 10 60 29 28 19 55 35 60 35 5 0 11 4 13 8
4 12 125 92 137 92 5 0 16 8 23 19 7 10 27 25 43 35 55 30 75 46 156 122 14
13 29 24 33 24 4 0 35 20 69 43 34 24 77 49 95 57 17 7 32 16 32 21 0 5 6 9
13 9 8 0 22 9 32 20 10 11 26 20 35 20 9 0 25 9 35 20 10 11 24 20 32 20 8 0
12 4 9 9 -4 5 4 7 16 3 14 -3 19 -2 14 6 -5 8 0 12 13 12 11 0 22 4 26 10 3 5
12 7 20 4 7 -3 22 3 32 13 24 22 75 47 129 62 23 6 47 18 54 27 9 10 15 11 20
4 4 -6 14 -8 22 -5z m7389 -479 c-16 -19 -27 -167 -19 -251 27 -269 32 -359
19 -351 -7 5 -11 -8 -11 -38 0 -53 -20 -146 -32 -146 -4 0 -8 -5 -8 -11 0 -11
-54 -69 -65 -69 -4 0 -24 -18 -45 -40 -21 -22 -44 -40 -52 -40 -7 0 -24 -18
-38 -40 -14 -22 -28 -40 -33 -40 -5 0 -50 -42 -101 -94 -51 -52 -104 -98 -117
-101 -14 -3 -33 -19 -44 -35 -11 -17 -33 -34 -48 -40 -17 -6 -32 -20 -38 -39
-8 -24 -20 -33 -50 -41 -39 -11 -70 -45 -47 -52 7 -3 3 -13 -11 -27 -18 -18
-25 -20 -31 -11 -6 10 -14 6 -33 -13 -13 -15 -29 -27 -36 -27 -6 0 -11 -5 -11
-11 0 -6 -13 -24 -29 -40 -21 -21 -39 -29 -64 -29 -19 0 -40 -6 -46 -14 -28
-33 -117 -66 -181 -66 -73 0 -159 33 -160 63 0 9 -5 17 -12 17 -19 0 -86 80
-100 119 -17 49 -17 273 -1 293 7 8 9 19 5 23 -4 5 -1 5 6 1 7 -5 12 -1 13 11
1 10 2 25 3 33 0 8 9 14 18 14 10 -1 16 2 13 6 -5 8 304 257 750 605 56 44
196 154 311 244 326 257 329 258 333 255 2 -2 -1 -10 -8 -18z m-10695 -376
c-54 -27 -103 -47 -110 -43 -6 3 -8 3 -4 -2 4 -4 -40 -36 -98 -70 -294 -177
-463 -378 -617 -735 -85 -198 -141 -375 -308 -980 -245 -885 -424 -1324 -727
-1774 -152 -225 -428 -529 -565 -622 -23 -16 -68 -48 -100 -71 -130 -94 -345
-200 -592 -290 -135 -49 -330 -106 -344 -101 -5 1 8 23 30 48 103 116 254 366
340 560 23 52 52 118 64 145 12 28 35 86 50 130 15 44 31 85 35 90 5 6 20 55
35 110 15 55 34 112 41 127 8 15 27 78 43 140 17 62 37 133 45 157 9 24 16 51
16 60 0 9 11 57 24 106 14 50 32 119 41 155 48 191 106 414 111 422 3 5 9 36
14 69 9 62 32 140 126 434 61 189 95 275 154 394 22 44 40 82 40 85 0 20 166
286 187 299 7 4 13 14 13 22 0 29 393 405 424 405 3 0 27 16 52 36 26 19 63
44 83 55 20 10 43 24 51 29 94 60 296 164 372 191 21 7 34 17 31 23 -3 6 -3 8
1 4 7 -6 116 35 141 53 6 3 25 10 43 14 17 3 32 11 32 16 0 6 6 9 13 7 6 -1
32 7 57 18 91 43 118 54 130 54 7 0 34 11 61 25 27 13 65 27 84 31 21 4 32 10
28 17 -4 6 0 8 10 4 21 -8 49 2 41 14 -5 9 15 14 49 11 10 -1 15 3 12 8 -3 6
1 11 9 11 26 2 29 3 67 21 20 10 47 19 60 20 13 2 29 7 34 11 12 10 245 105
260 106 6 0 -34 -22 -89 -49z m-3336 35 c0 -2 -23 -17 -52 -31 -118 -60 -264
-214 -365 -384 -147 -247 -245 -509 -473 -1265 -213 -707 -342 -1059 -520
-1420 -366 -744 -781 -1176 -1540 -1600 -112 -62 -1427 -725 -1515 -764 -5 -2
10 20 35 50 25 30 62 77 82 104 20 28 46 59 58 70 21 19 74 84 128 159 12 17
40 52 63 78 49 56 90 110 126 163 15 22 50 69 78 105 28 36 73 97 100 135 26
39 72 105 102 147 29 42 53 80 53 84 0 4 18 30 39 58 38 50 54 74 108 169 16
26 43 71 62 100 19 29 55 93 81 142 27 50 64 118 83 153 33 56 107 208 107
218 0 2 11 28 25 58 14 30 25 57 25 61 0 3 20 47 44 98 23 50 49 110 56 132 7
22 16 44 21 50 5 5 9 17 9 27 0 10 4 18 8 18 5 0 15 21 24 48 9 26 26 72 38
102 12 30 34 91 50 135 16 44 43 114 61 155 17 41 51 134 75 205 47 140 136
381 159 430 8 17 26 64 40 105 15 41 32 86 39 100 7 14 26 59 41 100 51 135
206 429 293 554 101 145 261 327 331 377 19 13 45 33 59 44 61 52 222 138 372
199 91 37 428 168 750 292 322 123 594 229 605 234 23 10 35 12 35 5z m7353
-322 c-205 -137 -312 -232 -723 -644 -223 -223 -457 -448 -520 -500 -146 -121
-416 -341 -489 -398 -41 -33 -49 -37 -30 -15 33 37 84 126 80 139 -1 6 1 7 5
3 4 -4 33 33 66 82 90 138 244 340 346 455 160 178 386 388 516 477 139 96
331 218 342 218 3 0 22 11 43 24 21 14 42 22 45 19 3 -4 6 -1 6 6 0 7 4 10 9
6 5 -3 12 -1 15 4 4 5 48 29 98 53 51 24 133 64 183 89 49 25 94 47 100 47 5
1 -36 -28 -92 -65z m2500 -542 c-32 -38 -75 -100 -96 -137 -38 -69 -110 -266
-123 -336 -3 -21 -11 -38 -16 -38 -6 0 -8 -9 -5 -20 3 -11 2 -18 -3 -15 -7 4
-16 -27 -22 -72 -1 -6 -7 -9 -13 -7 -8 3 -14 -9 -18 -31 -5 -31 -26 -65 -41
-65 -3 0 -37 -31 -75 -70 -39 -38 -75 -70 -80 -70 -6 0 -14 -6 -18 -13 -16
-27 -180 -57 -323 -59 -74 -1 -142 0 -150 3 -69 24 -90 35 -90 46 0 7 -6 22
-12 33 -11 17 -10 26 3 49 13 22 14 32 5 41 -8 8 -7 10 4 5 9 -3 20 3 28 15 7
12 8 20 2 20 -5 0 -2 9 7 20 10 11 22 20 28 20 5 0 3 -5 -5 -11 -13 -9 -13
-10 0 -6 8 2 15 9 15 14 0 16 53 55 65 48 6 -4 9 -2 8 4 -2 6 193 148 432 315
239 168 460 323 490 345 30 22 56 40 58 40 2 1 -23 -30 -55 -68z m-4620 -1403
c-118 -126 -325 -433 -483 -718 -81 -146 -291 -571 -329 -667 -8 -18 -17 -30
-22 -27 -5 3 -6 -2 -3 -10 3 -9 1 -16 -5 -16 -6 0 -11 -8 -11 -19 0 -10 -10
-26 -22 -35 -13 -9 -17 -14 -10 -11 6 3 12 1 12 -4 0 -6 -5 -11 -11 -11 -6 0
-8 -7 -5 -16 3 -8 2 -13 -3 -10 -4 3 -14 -7 -21 -22 -7 -15 -16 -34 -21 -42
-5 -8 -12 -23 -15 -32 -4 -10 -10 -18 -14 -18 -9 0 -40 -57 -40 -74 0 -16
-103 -126 -118 -126 -7 0 -12 -4 -12 -10 0 -5 -16 -20 -35 -32 -19 -13 -39
-33 -46 -45 -6 -12 -21 -24 -33 -27 -24 -7 -86 -61 -86 -76 0 -5 -7 -10 -16
-10 -8 0 -29 -13 -45 -30 -16 -16 -44 -39 -62 -52 -18 -12 -34 -25 -37 -28 -3
-3 -30 -25 -60 -50 -30 -25 -72 -62 -92 -82 -20 -21 -42 -38 -48 -38 -5 0 -10
-4 -10 -9 0 -5 -14 -14 -30 -21 -17 -7 -37 -25 -45 -41 -8 -15 -23 -30 -32
-33 -10 -3 -34 -21 -53 -39 -19 -18 -51 -44 -70 -57 -19 -13 -46 -35 -60 -47
-14 -13 -28 -23 -31 -23 -3 0 -19 -12 -35 -26 -16 -14 -45 -37 -64 -52 -19
-15 -42 -34 -51 -42 -64 -55 -86 -64 -154 -61 -45 2 -71 9 -102 29 -39 25 -43
30 -43 69 0 23 5 45 10 48 6 3 10 16 10 29 0 24 25 81 46 106 7 8 13 20 14 25
0 6 10 20 20 33 11 12 20 26 20 31 0 5 4 11 8 13 5 2 29 30 54 63 26 33 84 96
130 140 354 340 623 600 678 655 550 555 971 996 1364 1428 76 83 141 152 144
152 3 0 -8 -15 -25 -32z" />
  </g>
</svg>