<?xml version="1.0" standalone="no"?>
<!DOCTYPE svg PUBLIC "-//W3C//DTD SVG 20010904//EN" "http://www.w3.org/TR/2001/REC-SVG-20010904/DTD/svg10.dtd">
<svg version="1.0" xmlns="http://www.w3.org/2000/svg" width="1920.000000pt" height="1152.000000pt"
  viewBox="200 0 1920.000000 1152.000000" preserveAspectRatio="xMidYMid meet">
  <metadata>
    Created by potrace 1.16, written by Peter Selinger 2001-2019
  </metadata>
  <g transform="translate(0.000000,1152.000000) scale(0.100000,-0.100000)" fill="#000000" stroke="none">
    <path d="M0 5760 l0 -5760 9600 0 9600 0 0 888 c0 875 0 888 -20 905 -25 21
-25 39 0 62 19 17 20 31 20 271 l0 253 -22 3 c-18 2 -23 10 -23 33 0 22 6 33
23 40 22 10 22 10 22 262 l0 253 -25 0 c-28 0 -49 31 -40 60 7 20 39 35 55 25
7 -4 10 83 10 257 l0 263 -37 0 c-37 0 -38 1 -38 35 0 34 1 35 37 35 l38 0 0
3938 0 3937 -2226 0 c-1224 0 -2223 -4 -2220 -8 3 -5 10 -56 16 -114 65 -646
-491 -1198 -1137 -1128 -311 33 -597 208 -761 464 -25 39 -46 72 -48 74 -1 2
-12 -3 -23 -10 -28 -17 -55 -1 -59 35 -3 20 3 30 21 38 l25 11 -27 82 c-39
114 -54 204 -55 323 -1 57 -2 103 -4 103 -2 0 -12 -4 -22 -10 -13 -7 -24 -5
-41 9 -21 16 -22 22 -11 45 12 28 49 35 69 15 9 -9 13 -5 18 17 4 16 8 35 11
42 2 9 -31 12 -146 12 -136 0 -150 -2 -159 -19 -6 -10 -18 -21 -26 -25 -21 -8
-55 10 -55 29 0 13 -43 15 -302 15 -251 0 -299 -2 -284 -13 38 -27 -2 -95 -41
-71 -25 16 -29 55 -7 71 15 11 -58 13 -422 13 -427 0 -440 -1 -457 -20 -9 -11
-24 -20 -32 -20 -8 0 -23 9 -32 20 -17 19 -30 20 -306 20 -285 0 -288 0 -277
-20 15 -28 -4 -60 -34 -60 -32 0 -50 24 -42 55 l6 25 -424 0 c-383 0 -427 -2
-454 -17 -29 -17 -31 -17 -50 0 -17 15 -48 17 -304 17 -281 0 -286 0 -281 -20
7 -26 -13 -50 -43 -50 -25 0 -49 33 -40 56 5 12 -576 14 -4254 14 l-4260 0 0
-5760z m16115 5315 c49 -48 19 -125 -50 -125 -39 0 -75 37 -75 77 0 32 42 73
75 73 14 0 37 -11 50 -25z m380 0 c30 -30 32 -64 4 -99 -26 -33 -79 -36 -109
-6 -30 30 -27 83 6 109 35 28 69 26 99 -4z m359 14 c36 -17 51 -60 34 -96 -27
-56 -109 -57 -132 -1 -30 69 30 128 98 97z m390 -10 c33 -26 36 -79 6 -109
-30 -30 -83 -27 -109 6 -28 35 -26 69 4 99 30 30 64 32 99 4z m381 -4 c30 -30
32 -64 4 -99 -40 -51 -129 -19 -129 46 0 36 40 78 75 78 14 0 37 -11 50 -25z
m359 14 c73 -34 44 -139 -38 -139 -63 0 -90 89 -40 129 30 24 43 26 78 10z
m390 -10 c33 -26 36 -79 5 -110 -47 -47 -141 2 -125 65 15 62 72 83 120 45z
m381 -4 c70 -69 -30 -170 -102 -103 -14 13 -23 33 -23 50 0 36 40 78 75 78 14
0 37 -11 50 -25z m-10663 -295 c136 -151 209 -360 194 -555 -8 -112 -29 -185
-82 -294 -39 -78 -62 -110 -133 -181 -98 -99 -176 -148 -306 -193 -83 -29
-100 -31 -225 -32 -114 0 -146 4 -210 23 -106 34 -213 89 -206 108 3 7 28 47
56 88 l50 75 72 -34 c162 -77 329 -73 490 12 171 90 287 283 288 479 0 67 -33
192 -67 257 -15 29 -60 85 -100 125 l-73 72 56 85 57 84 45 -32 c24 -18 67
-57 94 -87z m8028 30 c48 -48 2 -139 -63 -126 -62 12 -85 70 -46 120 26 33 79
36 109 6z m379 -6 c34 -43 26 -86 -20 -109 -39 -21 -56 -19 -84 10 -50 49 -20
125 49 125 25 0 40 -7 55 -26z m372 8 c33 -27 30 -78 -5 -109 -15 -12 -36 -23
-46 -23 -10 0 -31 11 -46 23 -53 46 -24 127 46 127 15 0 38 -8 51 -18z m380
-3 c29 -29 23 -85 -13 -112 -67 -50 -151 39 -98 106 27 34 80 37 111 6z m378
-5 c39 -50 16 -108 -46 -120 -65 -13 -111 78 -63 126 30 30 83 27 109 -6z
m374 9 c8 -10 19 -30 22 -45 6 -22 1 -33 -23 -58 -36 -35 -60 -38 -96 -9 -35
27 -37 90 -4 113 30 21 81 20 101 -1z m377 -3 c30 -30 27 -83 -6 -109 -15 -12
-33 -21 -40 -21 -26 0 -62 23 -73 47 -16 34 -14 47 10 77 26 33 79 36 109 6z
m377 -2 c14 -13 23 -33 23 -50 0 -36 -40 -78 -75 -78 -35 0 -75 42 -75 78 0
64 79 95 127 50z m-2642 -263 c49 -48 19 -125 -50 -125 -39 0 -75 37 -75 77 0
32 42 73 75 73 14 0 37 -11 50 -25z m388 -6 c38 -47 3 -119 -59 -119 -71 0
-103 86 -47 130 33 26 79 21 106 -11z m351 20 c49 -23 53 -104 7 -128 -82 -44
-157 55 -87 116 31 26 44 28 80 12z m390 -10 c33 -26 36 -79 6 -109 -30 -30
-83 -27 -109 6 -58 74 29 161 103 103z m381 -4 c30 -30 32 -64 4 -99 -41 -53
-129 -21 -129 46 0 36 40 78 75 78 14 0 37 -11 50 -25z m359 14 c73 -34 44
-139 -38 -139 -63 0 -90 89 -40 129 30 24 43 26 78 10z m390 -10 c33 -26 36
-79 6 -109 -30 -30 -83 -27 -109 6 -25 32 -26 46 -6 84 22 43 68 51 109 19z
m381 -4 c70 -69 -30 -170 -102 -103 -14 13 -23 33 -23 50 0 36 40 78 75 78 14
0 37 -11 50 -25z m-2635 -267 c11 -12 20 -35 20 -50 0 -36 -40 -78 -75 -78
-33 0 -75 41 -75 73 0 13 9 36 21 51 27 34 79 36 109 4z m379 -4 c26 -33 27
-65 4 -93 -45 -54 -133 -24 -133 45 0 71 86 103 129 48z m362 15 c46 -24 42
-105 -7 -128 -36 -16 -49 -14 -80 12 -70 61 5 160 87 116z m389 -9 c49 -49 3
-139 -65 -126 -38 8 -53 23 -61 61 -13 68 77 114 126 65z m379 -6 c12 -15 21
-38 21 -51 0 -32 -42 -73 -75 -73 -35 0 -75 42 -75 78 0 67 88 99 129 46z
m362 15 c48 -25 44 -105 -7 -128 -35 -16 -48 -14 -78 10 -19 15 -26 30 -26 55
0 60 57 92 111 63z m390 -10 c14 -14 19 -30 17 -56 -6 -74 -100 -97 -133 -33
-20 38 -19 52 6 84 26 33 79 36 110 5z m376 -1 c14 -13 23 -33 23 -50 0 -36
-40 -78 -75 -78 -14 0 -37 11 -50 25 -70 69 30 170 102 103z m-7377 -492 l0
-74 28 1 c15 1 51 0 80 -1 45 -2 52 -5 52 -22 0 -16 -7 -20 -38 -20 -26 0 -41
-6 -50 -20 -14 -22 -42 -26 -60 -8 -9 9 -12 -4 -12 -59 0 -52 -4 -72 -14 -76
-23 -9 -26 2 -26 85 l0 78 -80 0 c-73 0 -80 2 -80 20 0 18 7 20 80 20 l80 0 0
75 c0 68 2 75 20 75 18 0 20 -7 20 -74z m2301 -6913 c203 -70 363 -230 435
-433 22 -61 28 -98 32 -195 5 -145 -11 -222 -70 -345 -34 -70 -57 -101 -132
-176 -147 -145 -288 -204 -490 -204 -125 0 -206 19 -316 72 -69 33 -101 57
-176 132 -75 75 -98 106 -132 176 -59 124 -76 205 -70 342 4 92 10 129 35 199
76 218 260 388 485 449 113 31 284 24 399 -17z m4569 -1338 l0 -74 77 -3 c65
-3 78 -6 81 -20 3 -16 -6 -18 -77 -18 l-81 0 0 -80 c0 -63 -3 -82 -15 -87 -9
-3 -18 -4 -20 -2 -2 3 -5 40 -7 84 l-3 80 -82 5 c-84 5 -128 24 -82 34 13 3
56 7 94 8 54 2 70 6 71 18 1 8 2 41 3 73 1 50 3 57 21 57 18 0 20 -7 20 -75z
m-5836 -368 c14 -38 -3 -79 -38 -96 -25 -12 -33 -11 -62 3 -89 42 -30 169 61
132 17 -7 34 -24 39 -39z m366 15 c23 -28 24 -41 9 -75 -31 -69 -139 -48 -139
27 0 79 82 109 130 48z m375 8 c27 -29 22 -80 -9 -107 -15 -12 -33 -23 -41
-23 -29 0 -64 24 -75 51 -31 74 71 138 125 79z m389 -23 c22 -63 -36 -121 -95
-97 -67 28 -65 113 2 139 34 12 82 -9 93 -42z m376 3 c18 -44 5 -78 -36 -97
-32 -16 -38 -16 -62 -2 -55 31 -55 110 0 133 42 18 82 4 98 -34z m362 21 c9
-9 20 -28 23 -43 6 -22 1 -33 -23 -58 -17 -16 -40 -30 -51 -30 -33 0 -74 43
-74 78 0 70 75 102 125 53z m388 -11 c29 -54 -5 -114 -65 -114 -40 0 -74 31
-75 69 0 27 27 64 54 74 27 10 73 -6 86 -29z m376 2 c47 -62 -36 -150 -101
-108 -49 32 -45 108 7 131 36 15 73 6 94 -23z m-2651 -257 c49 -48 19 -125
-50 -125 -39 0 -75 37 -75 77 0 32 42 73 75 73 14 0 37 -11 50 -25z m374 8
c11 -10 24 -32 27 -50 5 -26 1 -37 -19 -57 -51 -51 -127 -22 -127 48 0 62 72
97 119 59z m373 3 c47 -35 35 -119 -18 -132 -64 -16 -118 39 -94 97 7 16 20
34 29 39 23 13 63 12 83 -4z m382 -7 c54 -42 21 -129 -49 -129 -24 0 -39 7
-54 26 -28 35 -26 69 4 99 30 30 64 32 99 4z m381 -4 c30 -30 32 -64 4 -99
-26 -33 -79 -36 -109 -6 -30 30 -27 83 6 109 35 28 69 26 99 -4z m364 15 c10
-5 24 -23 31 -39 35 -86 -98 -143 -138 -58 -31 64 43 132 107 97z m385 -11
c53 -41 23 -129 -44 -129 -38 0 -80 39 -80 75 0 33 41 75 73 75 13 0 36 -9 51
-21z m381 -4 c30 -30 32 -64 4 -99 -15 -19 -30 -26 -54 -26 -70 0 -103 87 -49
129 35 28 69 26 99 -4z m-2625 -275 c26 -49 -2 -105 -57 -116 -60 -12 -107 69
-69 118 30 40 104 39 126 -2z m1130 0 c17 -32 11 -70 -16 -97 -20 -20 -31 -24
-57 -19 -80 15 -91 117 -16 144 30 11 76 -3 89 -28z m1130 0 c45 -83 -63 -161
-122 -89 -32 38 -13 100 36 118 27 10 73 -6 86 -29z m376 2 c37 -48 0 -116
-61 -116 -82 0 -106 108 -31 139 34 15 71 5 92 -23z m-2263 -3 c26 -36 16 -84
-23 -104 -38 -20 -52 -19 -84 6 -33 26 -36 79 -5 110 29 29 85 23 112 -12z
m372 11 c28 -31 24 -79 -9 -107 -30 -26 -44 -28 -79 -12 -47 21 -56 80 -19
122 21 24 84 23 107 -3z m754 -6 c39 -50 16 -108 -46 -120 -65 -13 -111 78
-63 126 30 30 83 27 109 -6z m376 6 c28 -31 24 -79 -9 -107 -15 -12 -36 -23
-46 -23 -10 0 -31 11 -46 23 -33 28 -37 76 -9 107 25 27 85 27 110 0z m-1890
-265 c50 -49 19 -125 -50 -125 -72 0 -104 86 -49 129 35 28 69 26 99 -4z m380
0 c31 -30 32 -66 3 -99 -50 -55 -128 -25 -128 48 0 25 7 40 26 55 35 28 69 26
99 -4z m359 14 c34 -16 47 -57 30 -97 -23 -55 -105 -55 -132 1 -15 32 -9 60
21 87 24 23 45 25 81 9z m391 -14 c49 -48 19 -125 -50 -125 -39 0 -75 37 -75
77 0 32 42 73 75 73 14 0 37 -11 50 -25z m380 0 c30 -30 32 -64 4 -99 -26 -33
-79 -36 -109 -6 -30 30 -27 83 6 109 35 28 69 26 99 -4z m372 5 c30 -27 36
-55 21 -87 -27 -56 -110 -55 -136 0 -34 71 59 140 115 87z m377 -1 c33 -26 36
-79 6 -109 -30 -30 -83 -27 -109 6 -28 35 -26 69 4 99 30 30 64 32 99 4z m381
-4 c30 -30 32 -64 4 -99 -41 -53 -129 -23 -129 44 0 38 39 80 75 80 14 0 37
-11 50 -25z" />
    <path d="M13385 2713 c-211 -28 -390 -206 -426 -422 -42 -251 123 -500 376
-566 264 -68 546 105 610 376 80 340 -211 658 -560 612z" />
    <path d="M13010 11473 c-7 -27 -15 -89 -17 -139 -21 -365 235 -694 599 -768
247 -51 499 27 677 207 99 100 156 200 196 337 23 79 26 267 7 353 l-13 57
-719 0 -718 0 -12 -47z" />
  </g>
</svg>